<?xml version="1.0" encoding="UTF-8" standalone="no"?><!DOCTYPE svg PUBLIC "-//W3C//DTD SVG 1.1//EN" "http://www.w3.org/Graphics/SVG/1.1/DTD/svg11.dtd"><svg width="100%" height="100%" viewBox="0 0 1611 1135" version="1.1" xmlns="http://www.w3.org/2000/svg" xmlns:xlink="http://www.w3.org/1999/xlink" xml:space="preserve" xmlns:serif="http://www.serif.com/" style="fill-rule:evenodd;clip-rule:evenodd;stroke-linecap:round;stroke-linejoin:round;stroke-miterlimit:1.5;"><g id="Morse-sets" serif:id="Morse sets"><circle id="Index-2" serif:id="Index 2" cx="542.014" cy="712.535" r="118.11" style="fill:#4063d8;"/><path id="Index-1b" serif:id="Index 1b" d="M1014.46,121.984l236.22,472.441l-236.22,472.441l-472.441,-944.882l472.441,0Z" style="fill:#9558b2;stroke:#9558b2;stroke-width:125px;"/><path id="Index-1" serif:id="Index 1" d="M1014.46,1066.87l-944.882,0l472.441,-944.882l708.661,472.441l-236.22,472.441Z" style="fill:none;stroke:#9558b2;stroke-width:125px;"/><circle id="Index-0" serif:id="Index 0" cx="1486.9" cy="121.984" r="118.11" style="fill:#cb3c33;"/></g><g id="Simplicial-Complex" serif:id="Simplicial Complex"><g id="Edges"><path id="Edge-5" serif:id="Edge 5" d="M542.014,121.984l472.441,944.882" style="fill:none;stroke:#000;stroke-width:12.5px;"/><path id="Edge-4" serif:id="Edge 4" d="M69.573,1066.87l472.441,-944.882" style="fill:none;stroke:#000;stroke-width:12.5px;"/><path id="Edge-3" serif:id="Edge 3" d="M542.014,121.984l944.882,0" style="fill:none;stroke:#000;stroke-width:12.5px;"/><path id="Edge-2" serif:id="Edge 2" d="M1486.9,121.984l-472.441,944.882" style="fill:none;stroke:#000;stroke-width:12.5px;"/><path id="Edge-1" serif:id="Edge 1" d="M69.573,1066.87l944.882,0" style="fill:none;stroke:#000;stroke-width:12.5px;"/></g></g><g id="Vector-field" serif:id="Vector field"><g id="Critical"><circle id="Critical-2" serif:id="Critical 2" cx="542.014" cy="712.535" r="47.244" style="fill:#389826;"/><circle id="Critical-1" serif:id="Critical 1" cx="1250.67" cy="594.425" r="47.244" style="fill:#389826;"/><circle id="Critical-0" serif:id="Critical 0" cx="1486.9" cy="121.984" r="47.244" style="fill:#389826;"/></g><g id="Vectors"><g id="Vector-3c" serif:id="Vector 3c"><path d="M1014.46,121.984l-0,212.599" style="fill:none;"/><path d="M1064.45,234.583l-50,100l-50,-100c25,25 75,25 100,-0Z" style="fill:#389826;"/><path d="M1014.46,121.984l-0,132.599" style="fill:none;stroke:#389826;stroke-width:33.33px;"/></g><g id="Vector-3b" serif:id="Vector 3b"><path d="M542.014,121.984l354.33,236.221" style="fill:none;"/><path d="M840.874,261.132l55.47,97.073l-110.94,-13.868c34.669,-6.934 62.404,-48.536 55.47,-83.205Z" style="fill:#389826;"/><path d="M542.014,121.984c-0,0 185.142,123.429 287.766,191.845" style="fill:none;stroke:#389826;stroke-width:33.33px;"/></g><g id="Vector-3a" serif:id="Vector 3a"><path d="M778.234,594.425l188.977,-94.488" style="fill:none;"/><path d="M855.407,499.937l111.804,0l-67.082,89.443c11.18,-33.541 -11.181,-78.263 -44.722,-89.443Z" style="fill:#389826;"/><path d="M778.234,594.425c0,0 63.93,-31.965 117.422,-58.711" style="fill:none;stroke:#389826;stroke-width:33.33px;"/></g><g id="Vector-2" serif:id="Vector 2"><path d="M69.573,1066.87l188.976,-377.953" style="fill:none;"/><path d="M169.106,755.995l89.443,-67.082l0,111.804c-11.18,-33.541 -55.901,-55.902 -89.443,-44.722Z" style="fill:#389826;"/><path d="M69.573,1066.87c-0,0 98.411,-196.822 153.199,-306.398" style="fill:none;stroke:#389826;stroke-width:33.33px;"/></g><g id="Vector-1" serif:id="Vector 1"><path d="M1014.46,1066.87l-377.953,0" style="fill:none;"/><path d="M736.502,1116.87l-100,-50l100,-50c-25,25 -25,75 -0,100Z" style="fill:#389826;"/><path d="M1014.46,1066.87l-297.953,0" style="fill:none;stroke:#389826;stroke-width:33.33px;"/></g></g></g></svg>